<?xml version="1.0" encoding="UTF-8"?>
<svg id="Layer_1" data-name="Layer 1" xmlns="http://www.w3.org/2000/svg" viewBox="0 0 902.81 183.96">
  <defs>
    <style>
      .cls-1 {
        fill: #3c82c4;
      }

      .cls-2 {
        fill: none;
        stroke: #f2ec5e;
        stroke-miterlimit: 10;
        stroke-width: 2px;
      }

      .cls-3 {
        fill: #00aeef;
      }
    </style>
  </defs>
  <g>
    <path class="cls-1" d="M122.56,147.7c-19.2.17-31.42-2.06-40.04-13.14-8-10.29-7.75-22.46-6.6-34.45,1.11-11.66,3.3-23.22,4.81-34.84.31-2.37.36-5.33-2.44-6.46-3.07-1.25-5.48.43-7.61,2.65-6.28,6.53-5.94,14.64-5.6,22.77.33,7.84-2.8,11.59-10.61,13.54-9.52,2.38-18.6,2.48-24.9-6.29-6.04-8.41-4.26-22.26,3.62-32.77,10.66-14.23,26.08-19.14,42.79-20.94,11.3-1.22,22.49-.7,32.9,4.9,8.57,4.6,12.64,11.92,11.88,21.28-1.05,12.88-3.12,25.67-4.52,38.52-.59,5.4-1.97,11.58,4.01,14.88,4.28,2.36,9.11,1.72,12.91-1.81,2.72-2.52,4.04-5.94,4.52-9.58,2.34-17.72,4.68-35.45,6.89-53.19.86-6.91,9.37-12.65,17.6-11.59,8.73,1.13,12.63,6.11,11.47,14.42-2.47,17.78-2.85,35.89-7.23,53.37-6.58,26.28-23.01,38.73-43.85,38.73Z"/>
    <path class="cls-1" d="M367.87,130.77c8.69.49,15.57-3.44,22.25-8.01,2.01-1.38,4.02-4.07,6.69-2.27,2.61,1.76,1.68,4.98.91,7.33-6.09,18.46-17.83,31.67-36.85,37.15-20.85,6.01-41.82-2.96-49.58-22.34-10.12-25.25-6.61-49.54,9-71.84,10.55-15.07,25.02-24.15,43.33-26.79,11.78-1.69,34.79,3.36,40.4,19.99,3.01,8.92-.18,22.79-8.28,30.03-6.74,6.03-18.35,6.71-26.98,1.75-4.05-2.33-5.04-5.49-3.92-9.91,1.18-4.66,1.62-9.45.69-14.25-.35-1.78-.92-3.52-2.94-4-1.96-.47-3.61.3-4.94,1.76-7.4,8.14-9.35,18.27-10.37,28.71-.72,7.36-.95,14.73,1.98,21.73,3.48,8.33,10.1,11.52,18.63,10.97Z"/>
    <path class="cls-1" d="M604.93,34.28c13.16,0,17.95,6.26,15.74,20.1-1.25,7.8-2.08,15.66-3.06,23.5-.07.56.22,1.16.35,1.74.92-.6,1.9-1.11,2.74-1.8,8.19-6.74,17.77-8.89,27.91-7.26,13.58,2.19,18.76,18.71,9.56,29.4-3.04,3.53-6.4,6.74-10.75,8.64-2.47,1.08-2.49,2.44-1.35,4.72,2.02,4.02,4.85,7.42,8.69,9.35,5.98,3.01,4.89,7.2,2.68,11.6-4.5,8.99-16.27,14.91-25.52,13.08-11.01-2.18-17.02-9.11-18.27-20.95-.13-1.26-.73-2.48-1.11-3.72-.25,1.14-.67,2.27-.73,3.42-.46,9.18-2.67,17.27-12.91,20.05-4.84,1.32-9.84,1.36-14.7,0-6.95-1.95-10.35-6.93-9.38-14.9,3.28-26.95,6.63-53.89,10.4-80.77,1.69-12.05,7.34-16.21,19.69-16.21ZM613.19,112.85c.04.18.11.55.19.92.13-.35.28-.7.38-1.06.59-2.1,2.31-2.97,4.11-3.69,2.5-1,4.74-2.37,6.34-4.55,1.56-2.14,3-4.74.54-6.84-2.55-2.18-4.92-.02-6.63,1.77-3.46,3.65-4.2,8.48-4.93,13.45Z"/>
    <path class="cls-1" d="M255.16,86.82c-1.26,11.62-2.44,21.77-3.41,31.93-.36,3.78-.01,7.46,3.02,10.47.73.72.93,2.8.44,3.79-3.84,7.79-10.03,12.8-18.66,14.27-7.06,1.2-13.52-.24-18.61-5.74-3.79-4.08-3.99-9.09-3.46-14.2,1.01-9.84,2.16-19.66,3.17-29.5.12-1.18.41-2.81-1.37-3.13-1.54-.28-2.63.71-3.19,2.04-3.41,8.05-2.4,16.82-4.05,25.16-1.37,6.96-.05,14.65-6.24,20.27-6.84,6.21-21.98,6.38-28.36-.27-4.72-4.91-2.71-11.03-2.11-16.72,1-9.61,2.39-19.18,3.49-28.78.17-1.46-.16-3.03-.51-4.49-.81-3.34-4.51-6.06-1.58-10.15,3.8-5.29,8.36-9.65,14.71-11.32,11.41-3.01,17.55-.19,23.42,9.91,1.61,2.77,2.34-.11,2.9-.84,7.68-9.85,23.63-13.06,33.2-6.59,4.77,3.23,7.23,8.49,7.19,13.89Z"/>
    <path class="cls-1" d="M525.16,147.75c-19.92-.06-34.78-11.23-37.28-28.06-3.22-21.63,8.84-41.44,29.29-47.36,15.21-4.41,30.33-4.62,43.21,6.17,14.28,11.96,15.63,36.41,3.76,51.3-10.03,12.58-23.28,17.86-38.98,17.96ZM522.03,114.4c0,3.51-.08,4.8.02,6.07.23,2.88.79,5.78,4.03,6.66,3.35.91,5.82-1.14,6.94-3.85,3.6-8.71,5.54-17.77,4-27.26-.48-2.99-1.34-6.11-5.04-6.31-3.96-.22-5.34,3.04-6.5,6.04-2.58,6.71-3.14,13.79-3.46,18.66Z"/>
    <path class="cls-1" d="M744.42,146.79c-17.42-.09-29.53-6.9-34.44-19.43-6.48-16.53-1.07-35.18,13.75-47.38,13.63-11.21,39.96-13.31,54.6-4.18,6.83,4.26,10.98,10.52,10.46,18.71-.53,8.45-4.99,14.85-12.51,18.94-9.66,5.26-19.93,6.37-30.65,4.57-.85-.14-2.47.04-2.55.37-.39,1.49.89,2.35,2.01,2.86,8.96,4.1,17.94,2.29,26.91-.04,1-.26,1.96-.71,2.96-.98,2.46-.65,5.07-3.57,7.42-.8,2.25,2.66-.24,5.43-1.56,7.67-8.15,13.84-20.76,19.61-36.38,19.69ZM752.86,89.59c-5,.07-11.37,9.98-9.36,13.67.26.47,1.36.79,2,.69,5.41-.83,9.41-3.56,10.79-9.07.8-3.17-.91-4.93-3.44-5.3Z"/>
    <path class="cls-1" d="M816.53,147.78c-9.78-.83-20.41-1.37-28.3-9.96-4.39-4.78-4.77-10.47-2.74-16.15,2.32-6.51,7.5-10.12,14.29-10.87,3.1-.34,6.41.05,9.48.74,5.09,1.15,7.8,4.22,6.21,9.82-.17.61-.23,1.27-.21,1.9.06,1.71-.51,3.7,1.37,4.76.56.32,1.86.07,2.37-.4,1.61-1.5,2.06-3.62,1.15-5.51-1.77-3.65-3.64-7.3-5.92-10.64-4.05-5.92-7.39-12.12-9.33-19.06-1.73-6.2,1.21-14.25,7.27-17.69,11.26-6.4,22.91-7.47,34.73-1.28,2.52,1.32,4.65,3.13,4.58,6.22-.06,2.72-2.72,2.95-4.55,3.97-4.26,2.39-2.42,5.72-.7,8.4,2.87,4.5,6.46,8.54,9.38,13.01,9.2,14.06,2.77,31.02-14.17,38.11-7.74,3.24-15.82,4.27-24.88,4.63Z"/>
    <path class="cls-1" d="M688.23,70.28c13.23,0,18.1,7.17,16.29,19.84-1.66,11.6-5.16,23.33-2.24,35.3.65,2.68,4.61,4.4,2.54,7.88-3.56,5.99-8.23,10.89-15.04,13.09-11.54,3.74-23-1.08-25.78-10.65-1.9-6.56.12-13.04.71-19.5.9-9.92,2.33-19.8,3.86-29.64,1.77-11.44,7.84-16.31,19.67-16.31Z"/>
    <path class="cls-1" d="M284.26,70.28c14.32,0,18.61,6.92,15.74,24.7-1.18,7.32-1.84,14.73-2.59,22.11-.41,4.07.42,7.86,2.78,11.39,2.73,4.08-.62,6.9-2.71,9.75-7.37,10.06-22.47,12.37-32.26,5.15-6.99-5.16-5.8-12.65-5.2-19.55,1.17-13.42,2.98-26.78,4.72-40.14,1.05-8.08,9.02-13.41,19.51-13.41Z"/>
    <path class="cls-1" d="M287.18,68.42c-12.41-.03-21.2-6.76-21.49-15.33-.31-9.29,8.85-17.75,19.46-18.95,7.08-.81,13.68-.26,19.19,4.22,9.9,8.05,6.85,21.31-5.96,26.96-4.04,1.78-8.17,3.2-11.2,3.1Z"/>
    <path class="cls-1" d="M669.71,52.39c.45-8.97,6.35-13.56,13.78-16.88,8.53-3.82,20.55-1.65,27.17,4.9,5.15,5.09,4.36,14.1-1.78,20.39-10.02,10.26-29.81,9.89-36.94-.68-1.57-2.32-2.51-4.81-2.23-7.72Z"/>
    <path class="cls-1" d="M479.81,98.63c-4.4,0-8.37-1.84-11.2-4.78-1.38.4-2.84.63-4.35.63-7.36,0-13.51-5.12-15.12-11.98-5.72-1.59-10.11-6.36-11.14-12.3-7.12,1.34-14.1,4.42-20.91,9.18-14.29,9.99-20.07,29.39-14.47,46.2,4.55,13.66,18.37,22.13,36.09,22.12,23.75-.02,40.33-12.44,45.98-34.47,1.27-4.95,1.27-10.33.25-15.48-1.61.56-3.33.88-5.12.88ZM445.73,124.25c-1.71,1.98-3.61,3.9-6.54,2.9-2.88-.99-3.32-3.65-3.57-6.24-.14-1.42-.03-2.87-.03-6.11,1.23-6.74-.34-16,5.84-23.3,2.51-2.97,5.47-2.91,7.57.74,3.17,5.49.91,27.2-3.27,32.02Z"/>
  </g>
  <g>
    <path class="cls-3" d="M119.36,142.71c-19.2.17-31.42-2.06-40.04-13.14-8-10.29-7.75-22.46-6.6-34.45,1.11-11.66,3.3-23.22,4.81-34.84.31-2.37.36-5.33-2.44-6.46-3.07-1.25-5.48.43-7.61,2.65-6.28,6.53-5.94,14.64-5.6,22.77.33,7.84-2.8,11.59-10.61,13.54-9.52,2.38-18.6,2.48-24.9-6.29-6.04-8.41-4.26-22.26,3.62-32.77,10.66-14.23,26.08-19.14,42.79-20.94,11.3-1.22,22.49-.7,32.9,4.9,8.57,4.6,12.64,11.92,11.88,21.28-1.05,12.88-3.12,25.67-4.52,38.52-.59,5.4-1.97,11.58,4.01,14.88,4.28,2.36,9.11,1.72,12.91-1.81,2.72-2.52,4.04-5.94,4.52-9.58,2.34-17.72,4.68-35.45,6.89-53.19.86-6.91,9.37-12.65,17.6-11.59,8.73,1.13,12.63,6.11,11.47,14.42-2.47,17.78-2.85,35.89-7.23,53.37-6.58,26.28-23.01,38.73-43.85,38.73Z"/>
    <path class="cls-3" d="M364.67,125.78c8.69.49,15.57-3.44,22.25-8.01,2.01-1.38,4.02-4.07,6.69-2.27,2.61,1.76,1.68,4.98.91,7.33-6.09,18.46-17.83,31.67-36.85,37.15-20.85,6.01-41.82-2.96-49.58-22.34-10.12-25.25-6.61-49.54,9-71.84,10.55-15.07,25.02-24.15,43.33-26.79,11.78-1.69,34.79,3.36,40.4,19.99,3.01,8.92-.18,22.79-8.28,30.03-6.74,6.03-18.35,6.71-26.98,1.75-4.05-2.33-5.04-5.49-3.92-9.91,1.18-4.66,1.62-9.45.69-14.25-.35-1.78-.92-3.52-2.94-4-1.96-.47-3.61.3-4.94,1.76-7.4,8.14-9.35,18.27-10.37,28.71-.72,7.36-.95,14.73,1.98,21.73,3.48,8.33,10.1,11.52,18.63,10.97Z"/>
    <path class="cls-3" d="M601.73,29.29c13.16,0,17.95,6.26,15.74,20.1-1.25,7.8-2.08,15.66-3.06,23.5-.07.56.22,1.16.35,1.74.92-.6,1.9-1.11,2.74-1.8,8.19-6.74,17.77-8.89,27.91-7.26,13.58,2.19,18.76,18.71,9.56,29.4-3.04,3.53-6.4,6.74-10.75,8.64-2.47,1.08-2.49,2.44-1.35,4.72,2.02,4.02,4.85,7.42,8.69,9.35,5.98,3.01,4.89,7.2,2.68,11.6-4.5,8.99-16.27,14.91-25.52,13.08-11.01-2.18-17.02-9.11-18.27-20.95-.13-1.26-.73-2.48-1.11-3.72-.25,1.14-.67,2.27-.73,3.42-.46,9.18-2.67,17.27-12.91,20.05-4.84,1.32-9.84,1.36-14.7,0-6.95-1.95-10.35-6.93-9.38-14.9,3.28-26.95,6.63-53.89,10.4-80.77,1.69-12.05,7.34-16.21,19.69-16.21ZM609.99,107.87c.04.18.11.55.19.92.13-.35.28-.7.38-1.06.59-2.1,2.31-2.97,4.11-3.69,2.5-1,4.74-2.37,6.34-4.55,1.56-2.14,3-4.74.54-6.84-2.55-2.18-4.92-.02-6.63,1.77-3.46,3.65-4.2,8.48-4.93,13.45Z"/>
    <path class="cls-3" d="M251.96,81.83c-1.26,11.62-2.44,21.77-3.41,31.93-.36,3.78-.01,7.46,3.02,10.47.73.72.93,2.8.44,3.79-3.84,7.79-10.03,12.8-18.66,14.27-7.06,1.2-13.52-.24-18.61-5.74-3.79-4.08-3.99-9.09-3.46-14.2,1.01-9.84,2.16-19.66,3.17-29.5.12-1.18.41-2.81-1.37-3.13-1.54-.28-2.63.71-3.19,2.04-3.41,8.05-2.4,16.82-4.05,25.16-1.37,6.96-.05,14.65-6.24,20.27-6.84,6.21-21.98,6.38-28.36-.27-4.72-4.91-2.71-11.03-2.11-16.72,1-9.61,2.39-19.18,3.49-28.78.17-1.46-.16-3.03-.51-4.49-.81-3.34-4.51-6.06-1.58-10.15,3.8-5.29,8.36-9.65,14.71-11.32,11.41-3.01,17.55-.19,23.42,9.91,1.61,2.77,2.34-.11,2.9-.84,7.68-9.85,23.63-13.06,33.2-6.59,4.77,3.23,7.23,8.49,7.19,13.89Z"/>
    <path class="cls-3" d="M521.96,142.76c-19.92-.06-34.78-11.23-37.28-28.06-3.22-21.63,8.84-41.44,29.29-47.36,15.21-4.41,30.33-4.62,43.21,6.17,14.28,11.96,15.63,36.41,3.76,51.3-10.03,12.58-23.28,17.86-38.98,17.96ZM518.83,109.41c0,3.51-.08,4.8.02,6.07.23,2.88.79,5.78,4.03,6.66,3.35.91,5.82-1.14,6.94-3.85,3.6-8.71,5.54-17.77,4-27.26-.48-2.99-1.34-6.11-5.04-6.31-3.96-.22-5.34,3.04-6.5,6.04-2.58,6.71-3.14,13.79-3.46,18.66Z"/>
    <path class="cls-3" d="M741.22,141.8c-17.41-.09-29.53-6.9-34.44-19.43-6.48-16.53-1.07-35.18,13.75-47.38,13.63-11.21,39.96-13.31,54.6-4.18,6.83,4.26,10.98,10.52,10.46,18.71-.53,8.45-4.99,14.85-12.51,18.94-9.66,5.26-19.93,6.37-30.65,4.57-.85-.14-2.47.04-2.55.37-.39,1.49.89,2.35,2.01,2.86,8.96,4.1,17.94,2.29,26.91-.04,1-.26,1.96-.71,2.96-.98,2.46-.65,5.07-3.57,7.42-.8,2.25,2.66-.24,5.43-1.56,7.67-8.15,13.84-20.76,19.61-36.38,19.69ZM749.66,84.6c-5,.07-11.37,9.98-9.36,13.67.26.47,1.36.79,2,.69,5.41-.83,9.41-3.56,10.79-9.07.8-3.17-.91-4.93-3.44-5.3Z"/>
    <path class="cls-3" d="M813.34,142.8c-9.78-.83-20.41-1.37-28.3-9.96-4.39-4.78-4.77-10.47-2.74-16.15,2.32-6.51,7.5-10.12,14.29-10.87,3.1-.34,6.41.05,9.48.74,5.09,1.15,7.8,4.22,6.21,9.82-.17.61-.23,1.27-.21,1.9.06,1.71-.51,3.7,1.37,4.76.56.32,1.86.07,2.37-.4,1.61-1.5,2.06-3.62,1.15-5.51-1.77-3.65-3.64-7.3-5.92-10.64-4.05-5.92-7.39-12.12-9.33-19.06-1.73-6.2,1.21-14.25,7.27-17.69,11.26-6.4,22.91-7.47,34.73-1.28,2.52,1.32,4.65,3.13,4.58,6.22-.06,2.72-2.72,2.95-4.55,3.97-4.26,2.39-2.42,5.72-.7,8.4,2.87,4.5,6.46,8.54,9.38,13.01,9.2,14.06,2.77,31.02-14.17,38.11-7.74,3.24-15.82,4.27-24.88,4.63Z"/>
    <path class="cls-3" d="M685.03,65.29c13.23,0,18.1,7.17,16.29,19.84-1.66,11.6-5.16,23.33-2.24,35.3.65,2.68,4.61,4.4,2.54,7.88-3.56,5.99-8.23,10.89-15.04,13.09-11.54,3.74-23-1.08-25.78-10.65-1.9-6.56.12-13.04.71-19.5.9-9.92,2.33-19.8,3.86-29.64,1.77-11.44,7.84-16.31,19.67-16.31Z"/>
    <path class="cls-3" d="M281.06,65.29c14.32,0,18.61,6.92,15.74,24.7-1.18,7.32-1.84,14.73-2.59,22.11-.41,4.07.42,7.86,2.78,11.39,2.73,4.08-.62,6.9-2.71,9.75-7.37,10.06-22.47,12.37-32.26,5.15-6.99-5.16-5.8-12.65-5.2-19.55,1.17-13.42,2.98-26.78,4.72-40.14,1.05-8.08,9.02-13.41,19.51-13.41Z"/>
    <path class="cls-3" d="M283.99,63.43c-12.41-.03-21.2-6.76-21.49-15.33-.31-9.29,8.85-17.75,19.46-18.95,7.08-.81,13.68-.26,19.19,4.22,9.9,8.05,6.85,21.31-5.96,26.96-4.04,1.78-8.17,3.2-11.2,3.1Z"/>
    <path class="cls-3" d="M666.51,47.4c.45-8.97,6.35-13.56,13.78-16.88,8.53-3.82,20.55-1.65,27.17,4.9,5.15,5.09,4.36,14.1-1.78,20.39-10.02,10.26-29.81,9.89-36.94-.68-1.57-2.32-2.51-4.81-2.23-7.72Z"/>
    <path class="cls-3" d="M476.62,93.64c-4.4,0-8.37-1.84-11.2-4.78-1.38.4-2.84.63-4.35.63-7.36,0-13.51-5.12-15.12-11.98-5.72-1.59-10.11-6.36-11.14-12.3-7.12,1.34-14.1,4.42-20.91,9.18-14.29,9.99-20.07,29.39-14.47,46.2,4.55,13.66,18.37,22.13,36.09,22.12,23.75-.02,40.33-12.44,45.98-34.47,1.27-4.95,1.27-10.33.25-15.48-1.61.56-3.33.88-5.12.88ZM442.53,119.26c-1.71,1.98-3.61,3.9-6.54,2.9-2.88-.99-3.32-3.65-3.57-6.24-.14-1.42-.03-2.87-.03-6.11,1.23-6.74-.34-16,5.84-23.3,2.51-2.97,5.47-2.91,7.57.74,3.17,5.49.91,27.2-3.27,32.02Z"/>
  </g>
  <g>
    <path class="cls-2" d="M111.76,151.2c-19.2.17-31.42-2.06-40.04-13.14-8-10.29-7.75-22.46-6.6-34.45,1.11-11.66,3.3-23.22,4.81-34.84.31-2.37.36-5.33-2.44-6.46-3.07-1.25-5.48.43-7.61,2.65-6.28,6.53-5.94,14.64-5.6,22.77.33,7.84-2.8,11.59-10.61,13.54-9.52,2.38-18.6,2.48-24.9-6.29-6.04-8.41-4.26-22.26,3.62-32.77,10.66-14.23,26.08-19.14,42.79-20.94,11.3-1.22,22.49-.7,32.9,4.9,8.57,4.6,12.64,11.92,11.88,21.28-1.05,12.88-3.12,25.67-4.52,38.52-.59,5.4-1.97,11.58,4.01,14.88,4.28,2.36,9.11,1.72,12.91-1.81,2.72-2.52,4.04-5.94,4.52-9.58,2.34-17.72,4.68-35.45,6.89-53.19.86-6.91,9.37-12.65,17.6-11.59,8.73,1.13,12.63,6.11,11.47,14.42-2.47,17.78-2.85,35.89-7.23,53.37-6.58,26.28-23.01,38.73-43.85,38.73Z"/>
    <path class="cls-2" d="M357.06,134.27c8.69.49,15.57-3.44,22.25-8.01,2.01-1.38,4.02-4.07,6.69-2.27,2.61,1.76,1.68,4.98.91,7.33-6.09,18.46-17.83,31.67-36.85,37.15-20.85,6.01-41.82-2.96-49.58-22.34-10.12-25.25-6.61-49.54,9-71.84,10.55-15.07,25.02-24.15,43.33-26.79,11.78-1.69,34.79,3.36,40.4,19.99,3.01,8.92-.18,22.79-8.28,30.03-6.74,6.03-18.35,6.71-26.98,1.75-4.05-2.33-5.04-5.49-3.92-9.91,1.18-4.66,1.62-9.45.69-14.25-.35-1.78-.92-3.52-2.94-4-1.96-.47-3.61.3-4.94,1.76-7.4,8.14-9.35,18.27-10.37,28.71-.72,7.36-.95,14.73,1.98,21.73,3.48,8.33,10.1,11.52,18.63,10.97Z"/>
    <path class="cls-2" d="M594.13,37.78c13.16,0,17.95,6.26,15.74,20.1-1.25,7.8-2.08,15.66-3.06,23.5-.07.56.22,1.16.35,1.74.92-.6,1.9-1.11,2.74-1.8,8.19-6.74,17.77-8.89,27.91-7.26,13.58,2.19,18.76,18.71,9.56,29.4-3.04,3.53-6.4,6.74-10.75,8.64-2.47,1.08-2.49,2.44-1.35,4.72,2.02,4.02,4.85,7.42,8.69,9.35,5.98,3.01,4.89,7.2,2.68,11.6-4.5,8.99-16.27,14.91-25.52,13.08-11.01-2.18-17.02-9.11-18.27-20.95-.13-1.26-.73-2.48-1.11-3.72-.25,1.14-.67,2.27-.73,3.42-.46,9.18-2.67,17.27-12.91,20.05-4.84,1.32-9.84,1.36-14.7,0-6.95-1.95-10.35-6.93-9.38-14.9,3.28-26.95,6.63-53.89,10.4-80.77,1.69-12.05,7.34-16.21,19.69-16.21ZM602.38,116.35c.04.18.11.55.19.92.13-.35.28-.7.38-1.06.59-2.1,2.31-2.97,4.11-3.69,2.5-1,4.74-2.37,6.34-4.55,1.56-2.14,3-4.74.54-6.84-2.55-2.18-4.92-.02-6.63,1.77-3.46,3.65-4.2,8.48-4.93,13.45Z"/>
    <path class="cls-2" d="M244.35,90.32c-1.26,11.62-2.44,21.77-3.41,31.93-.36,3.78-.01,7.46,3.02,10.47.73.72.93,2.8.44,3.79-3.84,7.79-10.03,12.8-18.66,14.27-7.06,1.2-13.52-.24-18.61-5.74-3.79-4.08-3.99-9.09-3.46-14.2,1.01-9.84,2.16-19.66,3.17-29.5.12-1.18.41-2.81-1.37-3.13-1.54-.28-2.63.71-3.19,2.04-3.41,8.05-2.4,16.82-4.05,25.16-1.37,6.96-.05,14.65-6.24,20.27-6.84,6.21-21.98,6.38-28.36-.27-4.72-4.91-2.71-11.03-2.11-16.72,1-9.61,2.39-19.18,3.49-28.78.17-1.46-.16-3.03-.51-4.49-.81-3.34-4.51-6.06-1.58-10.15,3.8-5.29,8.36-9.65,14.71-11.32,11.41-3.01,17.55-.19,23.42,9.91,1.61,2.77,2.34-.11,2.9-.84,7.68-9.85,23.63-13.06,33.2-6.59,4.77,3.23,7.23,8.49,7.19,13.89Z"/>
    <path class="cls-2" d="M514.36,151.25c-19.92-.06-34.78-11.23-37.28-28.06-3.22-21.63,8.84-41.44,29.29-47.36,15.21-4.41,30.33-4.62,43.21,6.17,14.28,11.96,15.63,36.41,3.76,51.3-10.03,12.58-23.28,17.86-38.98,17.96ZM511.22,117.9c0,3.51-.08,4.8.02,6.07.23,2.88.79,5.78,4.03,6.66,3.35.91,5.82-1.14,6.94-3.85,3.6-8.71,5.54-17.77,4-27.26-.48-2.99-1.34-6.11-5.04-6.31-3.96-.22-5.34,3.04-6.5,6.04-2.58,6.71-3.14,13.79-3.46,18.66Z"/>
    <path class="cls-2" d="M733.62,150.29c-17.41-.09-29.53-6.9-34.44-19.43-6.48-16.53-1.07-35.18,13.75-47.38,13.63-11.21,39.96-13.31,54.6-4.18,6.83,4.26,10.98,10.52,10.46,18.71-.53,8.45-4.99,14.85-12.51,18.94-9.66,5.26-19.93,6.37-30.65,4.57-.85-.14-2.47.04-2.55.37-.39,1.49.89,2.35,2.01,2.86,8.96,4.1,17.94,2.29,26.91-.04,1-.26,1.96-.71,2.96-.98,2.46-.65,5.07-3.57,7.42-.8,2.25,2.66-.24,5.43-1.56,7.67-8.15,13.84-20.76,19.61-36.38,19.69ZM742.05,93.09c-5,.07-11.37,9.98-9.36,13.67.26.47,1.36.79,2,.69,5.41-.83,9.41-3.56,10.79-9.07.8-3.17-.91-4.93-3.44-5.3Z"/>
    <path class="cls-2" d="M805.73,151.28c-9.78-.83-20.41-1.37-28.3-9.96-4.39-4.78-4.77-10.47-2.74-16.15,2.32-6.51,7.5-10.12,14.29-10.87,3.1-.34,6.41.05,9.48.74,5.09,1.15,7.8,4.22,6.21,9.82-.17.61-.23,1.27-.21,1.9.06,1.71-.51,3.7,1.37,4.76.56.32,1.86.07,2.37-.4,1.61-1.5,2.06-3.62,1.15-5.51-1.77-3.65-3.64-7.3-5.92-10.64-4.05-5.92-7.39-12.12-9.33-19.06-1.73-6.2,1.21-14.25,7.27-17.69,11.26-6.4,22.91-7.47,34.73-1.28,2.52,1.32,4.65,3.13,4.58,6.22-.06,2.72-2.72,2.95-4.55,3.97-4.26,2.39-2.42,5.72-.7,8.4,2.87,4.5,6.46,8.54,9.38,13.01,9.2,14.06,2.77,31.02-14.17,38.11-7.74,3.24-15.82,4.27-24.88,4.63Z"/>
    <path class="cls-2" d="M677.43,73.78c13.23,0,18.1,7.17,16.29,19.84-1.66,11.6-5.16,23.33-2.24,35.3.65,2.68,4.61,4.4,2.54,7.88-3.56,5.99-8.23,10.89-15.04,13.09-11.54,3.74-23-1.08-25.78-10.65-1.9-6.56.12-13.04.71-19.5.9-9.92,2.33-19.8,3.86-29.64,1.77-11.44,7.84-16.31,19.67-16.31Z"/>
    <path class="cls-2" d="M273.45,73.78c14.32,0,18.61,6.92,15.74,24.7-1.18,7.32-1.84,14.73-2.59,22.11-.41,4.07.42,7.86,2.78,11.39,2.73,4.08-.62,6.9-2.71,9.75-7.37,10.06-22.47,12.37-32.26,5.15-6.99-5.16-5.8-12.65-5.2-19.55,1.17-13.42,2.98-26.78,4.72-40.14,1.05-8.08,9.02-13.41,19.51-13.41Z"/>
    <path class="cls-2" d="M276.38,71.92c-12.41-.03-21.2-6.76-21.49-15.33-.31-9.29,8.85-17.75,19.46-18.95,7.08-.81,13.68-.26,19.19,4.22,9.9,8.05,6.85,21.31-5.96,26.96-4.04,1.78-8.17,3.2-11.2,3.1Z"/>
    <path class="cls-2" d="M658.9,55.89c.45-8.97,6.35-13.56,13.78-16.88,8.53-3.82,20.55-1.65,27.17,4.9,5.15,5.09,4.36,14.1-1.78,20.39-10.02,10.26-29.81,9.89-36.94-.68-1.57-2.32-2.51-4.81-2.23-7.72Z"/>
    <path class="cls-2" d="M469.01,102.12c-4.4,0-8.37-1.84-11.2-4.78-1.38.4-2.84.63-4.35.63-7.36,0-13.51-5.12-15.12-11.98-5.72-1.59-10.11-6.36-11.14-12.3-7.12,1.34-14.1,4.42-20.91,9.18-14.29,9.99-20.07,29.39-14.47,46.2,4.55,13.66,18.37,22.13,36.09,22.12,23.75-.02,40.33-12.44,45.98-34.47,1.27-4.95,1.27-10.33.25-15.48-1.61.56-3.33.88-5.12.88ZM434.92,127.75c-1.71,1.98-3.61,3.9-6.54,2.9-2.88-.99-3.32-3.65-3.57-6.24-.14-1.42-.03-2.87-.03-6.11,1.23-6.74-.34-16,5.84-23.3,2.51-2.97,5.47-2.91,7.57.74,3.17,5.49.91,27.2-3.27,32.02Z"/>
  </g>
</svg>